<?xml version="1.0" encoding="UTF-8" standalone="no"?>
<!DOCTYPE svg PUBLIC "-//W3C//DTD SVG 1.1//EN"
 "http://www.w3.org/Graphics/SVG/1.1/DTD/svg11.dtd">
<!-- Generated by graphviz version 14.0.0 (20250921.2048)
 -->
<!-- Title: G Pages: 1 -->
<svg width="1676pt" height="931pt"
 viewBox="0.00 0.00 1676.00 931.00" xmlns="http://www.w3.org/2000/svg" xmlns:xlink="http://www.w3.org/1999/xlink">
<g id="graph0" class="graph" transform="scale(1 1) rotate(0) translate(4 927.09)">
<title>G</title><style>.edge>path:hover{stroke-width:8}</style>
<polygon fill="white" stroke="none" points="-4,4 -4,-927.09 1671.97,-927.09 1671.97,4 -4,4"/>
<!-- CLI_parser -->
<g id="node1" class="node">
<title>CLI_parser</title><style>.edge>path:hover{stroke-width:8}</style>
<ellipse fill="#ce3b3b" stroke="black" cx="1412.28" cy="-407.04" rx="38.49" ry="18"/>
<text xml:space="preserve" text-anchor="middle" x="1412.28" y="-403.54" font-family="Helvetica,sans-Serif" font-size="10.00" fill="#ffffff">CLI_parser</text>
</g>
<!-- ECE461Project_main -->
<g id="node12" class="node">
<title>ECE461Project_main</title><style>.edge>path:hover{stroke-width:8}</style>
<ellipse fill="#959d43" stroke="black" cx="185.28" cy="-219.08" rx="61.16" ry="22.63"/>
<text xml:space="preserve" text-anchor="middle" x="185.28" y="-221.58" font-family="Helvetica,sans-Serif" font-size="10.00" fill="#000000">ECE461Project.</text>
<text xml:space="preserve" text-anchor="middle" x="185.28" y="-209.58" font-family="Helvetica,sans-Serif" font-size="10.00" fill="#000000">main</text>
</g>
<!-- CLI_parser&#45;&gt;ECE461Project_main -->
<g id="edge1" class="edge">
<title>CLI_parser&#45;&gt;ECE461Project_main</title><style>.edge>path:hover{stroke-width:8}</style>
<path fill="none" stroke="black" d="M1383.46,-394.8C1367.14,-388.69 1346.25,-381.31 1327.28,-375.93 1193,-337.86 1155.65,-343.8 1020.28,-309.82"/>
</g>
<!-- ECE461Project_tests_test_cli_parser -->
<g id="node13" class="node">
<title>ECE461Project_tests_test_cli_parser</title><style>.edge>path:hover{stroke-width:8}</style>
<ellipse fill="#a3ac49" stroke="black" cx="1389.28" cy="-129.34" rx="61.16" ry="31.11"/>
<text xml:space="preserve" text-anchor="middle" x="1389.28" y="-137.84" font-family="Helvetica,sans-Serif" font-size="10.00" fill="#000000">ECE461Project.</text>
<text xml:space="preserve" text-anchor="middle" x="1389.28" y="-125.84" font-family="Helvetica,sans-Serif" font-size="10.00" fill="#000000">tests.</text>
<text xml:space="preserve" text-anchor="middle" x="1389.28" y="-113.84" font-family="Helvetica,sans-Serif" font-size="10.00" fill="#000000">test_cli_parser</text>
</g>
<!-- CLI_parser&#45;&gt;ECE461Project_tests_test_cli_parser -->
<g id="edge2" class="edge">
<title>CLI_parser&#45;&gt;ECE461Project_tests_test_cli_parser</title><style>.edge>path:hover{stroke-width:8}</style>
<path fill="none" stroke="black" d="M1410.84,-388.8C1407.26,-345.94 1397.89,-233.62 1392.76,-172.1"/>
<polygon fill="#ce3b3b" stroke="black" points="1396.27,-172.06 1391.95,-162.38 1389.29,-172.64 1396.27,-172.06"/>
</g>
<!-- main -->
<g id="node27" class="node">
<title>main</title><style>.edge>path:hover{stroke-width:8}</style>
<ellipse fill="#6138a8" stroke="black" cx="1300.28" cy="-308.82" rx="27" ry="18"/>
<text xml:space="preserve" text-anchor="middle" x="1300.28" y="-305.32" font-family="Helvetica,sans-Serif" font-size="10.00" fill="#ffffff">main</text>
</g>
<!-- CLI_parser&#45;&gt;main -->
<g id="edge3" class="edge">
<title>CLI_parser&#45;&gt;main</title><style>.edge>path:hover{stroke-width:8}</style>
<path fill="none" stroke="black" d="M1394.78,-391.01C1375.93,-374.82 1345.82,-348.95 1324.66,-330.77"/>
<polygon fill="#ce3b3b" stroke="black" points="1327.22,-328.35 1317.35,-324.49 1322.66,-333.66 1327.22,-328.35"/>
</g>
<!-- CustomObjects -->
<g id="node2" class="node">
<title>CustomObjects</title><style>.edge>path:hover{stroke-width:8}</style>
<ellipse fill="#f98f10" stroke="black" cx="755.28" cy="-640.49" rx="50.66" ry="18"/>
<text xml:space="preserve" text-anchor="middle" x="755.28" y="-636.99" font-family="Helvetica,sans-Serif" font-size="10.00" fill="#000000">CustomObjects</text>
</g>
<!-- ECE461Project_CustomObjects_Dataset -->
<g id="node9" class="node">
<title>ECE461Project_CustomObjects_Dataset</title><style>.edge>path:hover{stroke-width:8}</style>
<ellipse fill="#9ca446" stroke="black" cx="930.28" cy="-407.04" rx="61.7" ry="31.11"/>
<text xml:space="preserve" text-anchor="middle" x="930.28" y="-415.54" font-family="Helvetica,sans-Serif" font-size="10.00" fill="#000000">ECE461Project.</text>
<text xml:space="preserve" text-anchor="middle" x="930.28" y="-403.54" font-family="Helvetica,sans-Serif" font-size="10.00" fill="#000000">CustomObjects.</text>
<text xml:space="preserve" text-anchor="middle" x="930.28" y="-391.54" font-family="Helvetica,sans-Serif" font-size="10.00" fill="#000000">Dataset</text>
</g>
<!-- CustomObjects&#45;&gt;ECE461Project_CustomObjects_Dataset -->
<g id="edge4" class="edge">
<title>CustomObjects&#45;&gt;ECE461Project_CustomObjects_Dataset</title><style>.edge>path:hover{stroke-width:8}</style>
<path fill="none" stroke="black" d="M763.28,-541.27C761.42,-500.42 810.9,-512.63 827.28,-475.16"/>
<path fill="none" stroke="black" d="M827.28,-474.16C832.28,-462.71 854.42,-447.83 876.9,-435.08"/>
<polygon fill="#f98f10" stroke="black" points="878.46,-438.22 885.52,-430.31 875.07,-432.09 878.46,-438.22"/>
</g>
<!-- ECE461Project_CustomObjects_Model -->
<g id="node11" class="node">
<title>ECE461Project_CustomObjects_Model</title><style>.edge>path:hover{stroke-width:8}</style>
<ellipse fill="#8e9640" stroke="black" cx="470.28" cy="-407.04" rx="61.7" ry="31.11"/>
<text xml:space="preserve" text-anchor="middle" x="470.28" y="-415.54" font-family="Helvetica,sans-Serif" font-size="10.00" fill="#000000">ECE461Project.</text>
<text xml:space="preserve" text-anchor="middle" x="470.28" y="-403.54" font-family="Helvetica,sans-Serif" font-size="10.00" fill="#000000">CustomObjects.</text>
<text xml:space="preserve" text-anchor="middle" x="470.28" y="-391.54" font-family="Helvetica,sans-Serif" font-size="10.00" fill="#000000">Model</text>
</g>
<!-- CustomObjects&#45;&gt;ECE461Project_CustomObjects_Model -->
<g id="edge5" class="edge">
<title>CustomObjects&#45;&gt;ECE461Project_CustomObjects_Model</title><style>.edge>path:hover{stroke-width:8}</style>
<path fill="none" stroke="black" d="M562.28,-474.16C546.9,-462.62 529.86,-450.26 514.67,-439.38"/>
<polygon fill="#f98f10" stroke="black" points="516.88,-436.66 506.71,-433.7 512.81,-442.36 516.88,-436.66"/>
<path fill="none" stroke="black" d="M763.28,-541.27C761.68,-506.21 723.45,-522.62 690.28,-511.16 634.42,-491.86 609.54,-510.63 562.28,-475.16"/>
<path fill="none" stroke="black" d="M758.07,-622.14C760.84,-602.89 764.53,-570.9 763.28,-543.27"/>
</g>
<!-- ECE461Project_tests_test_code -->
<g id="node14" class="node">
<title>ECE461Project_tests_test_code</title><style>.edge>path:hover{stroke-width:8}</style>
<ellipse fill="#9ca446" stroke="black" cx="649.28" cy="-407.04" rx="61.16" ry="31.11"/>
<text xml:space="preserve" text-anchor="middle" x="649.28" y="-415.54" font-family="Helvetica,sans-Serif" font-size="10.00" fill="#000000">ECE461Project.</text>
<text xml:space="preserve" text-anchor="middle" x="649.28" y="-403.54" font-family="Helvetica,sans-Serif" font-size="10.00" fill="#000000">tests.</text>
<text xml:space="preserve" text-anchor="middle" x="649.28" y="-391.54" font-family="Helvetica,sans-Serif" font-size="10.00" fill="#000000">test_code</text>
</g>
<!-- CustomObjects&#45;&gt;ECE461Project_tests_test_code -->
<g id="edge6" class="edge">
<title>CustomObjects&#45;&gt;ECE461Project_tests_test_code</title><style>.edge>path:hover{stroke-width:8}</style>
<path fill="none" stroke="black" d="M763.28,-541.27C761.92,-511.44 760.35,-503.61 751.28,-475.16"/>
<path fill="none" stroke="black" d="M751.28,-474.16C747.49,-462.29 725.51,-447.31 702.92,-434.61"/>
<polygon fill="#f98f10" stroke="black" points="704.69,-431.59 694.24,-429.87 701.34,-437.74 704.69,-431.59"/>
</g>
<!-- ECE461Project_tests_test_dataset -->
<g id="node15" class="node">
<title>ECE461Project_tests_test_dataset</title><style>.edge>path:hover{stroke-width:8}</style>
<ellipse fill="#9ca446" stroke="black" cx="789.28" cy="-407.04" rx="61.16" ry="31.11"/>
<text xml:space="preserve" text-anchor="middle" x="789.28" y="-415.54" font-family="Helvetica,sans-Serif" font-size="10.00" fill="#000000">ECE461Project.</text>
<text xml:space="preserve" text-anchor="middle" x="789.28" y="-403.54" font-family="Helvetica,sans-Serif" font-size="10.00" fill="#000000">tests.</text>
<text xml:space="preserve" text-anchor="middle" x="789.28" y="-391.54" font-family="Helvetica,sans-Serif" font-size="10.00" fill="#000000">test_dataset</text>
</g>
<!-- CustomObjects&#45;&gt;ECE461Project_tests_test_dataset -->
<g id="edge7" class="edge">
<title>CustomObjects&#45;&gt;ECE461Project_tests_test_dataset</title><style>.edge>path:hover{stroke-width:8}</style>
<path fill="none" stroke="black" d="M751.28,-474.16C748.08,-464.15 750.52,-454 755.4,-444.76"/>
<polygon fill="#f98f10" stroke="black" points="758.29,-446.72 760.69,-436.4 752.38,-442.98 758.29,-446.72"/>
</g>
<!-- ECE461Project_tests_test_llm_querier -->
<g id="node17" class="node">
<title>ECE461Project_tests_test_llm_querier</title><style>.edge>path:hover{stroke-width:8}</style>
<ellipse fill="#959d43" stroke="black" cx="1257.28" cy="-407.04" rx="61.16" ry="31.11"/>
<text xml:space="preserve" text-anchor="middle" x="1257.28" y="-415.54" font-family="Helvetica,sans-Serif" font-size="10.00" fill="#000000">ECE461Project.</text>
<text xml:space="preserve" text-anchor="middle" x="1257.28" y="-403.54" font-family="Helvetica,sans-Serif" font-size="10.00" fill="#000000">tests.</text>
<text xml:space="preserve" text-anchor="middle" x="1257.28" y="-391.54" font-family="Helvetica,sans-Serif" font-size="10.00" fill="#000000">test_llm_querier</text>
</g>
<!-- CustomObjects&#45;&gt;ECE461Project_tests_test_llm_querier -->
<g id="edge8" class="edge">
<title>CustomObjects&#45;&gt;ECE461Project_tests_test_llm_querier</title><style>.edge>path:hover{stroke-width:8}</style>
<path fill="none" stroke="black" d="M785.17,-625.71C867.19,-587.9 1096.62,-482.11 1202.49,-433.3"/>
<polygon fill="#f98f10" stroke="black" points="1203.65,-436.62 1211.27,-429.26 1200.72,-430.27 1203.65,-436.62"/>
</g>
<!-- ECE461Project_tests_test_model -->
<g id="node19" class="node">
<title>ECE461Project_tests_test_model</title><style>.edge>path:hover{stroke-width:8}</style>
<ellipse fill="#9ca446" stroke="black" cx="560.28" cy="-308.82" rx="61.16" ry="31.11"/>
<text xml:space="preserve" text-anchor="middle" x="560.28" y="-317.32" font-family="Helvetica,sans-Serif" font-size="10.00" fill="#000000">ECE461Project.</text>
<text xml:space="preserve" text-anchor="middle" x="560.28" y="-305.32" font-family="Helvetica,sans-Serif" font-size="10.00" fill="#000000">tests.</text>
<text xml:space="preserve" text-anchor="middle" x="560.28" y="-293.32" font-family="Helvetica,sans-Serif" font-size="10.00" fill="#000000">test_model</text>
</g>
<!-- CustomObjects&#45;&gt;ECE461Project_tests_test_model -->
<g id="edge9" class="edge">
<title>CustomObjects&#45;&gt;ECE461Project_tests_test_model</title><style>.edge>path:hover{stroke-width:8}</style>
<path fill="none" stroke="black" d="M562.28,-474.16C543.37,-459.97 548.1,-395.3 553.79,-351.44"/>
<polygon fill="#f98f10" stroke="black" points="557.23,-352.12 555.12,-341.73 550.29,-351.17 557.23,-352.12"/>
</g>
<!-- ECE461Project_tests_test_url_handler -->
<g id="node20" class="node">
<title>ECE461Project_tests_test_url_handler</title><style>.edge>path:hover{stroke-width:8}</style>
<ellipse fill="#959d43" stroke="black" cx="1058.28" cy="-129.34" rx="61.16" ry="31.11"/>
<text xml:space="preserve" text-anchor="middle" x="1058.28" y="-137.84" font-family="Helvetica,sans-Serif" font-size="10.00" fill="#000000">ECE461Project.</text>
<text xml:space="preserve" text-anchor="middle" x="1058.28" y="-125.84" font-family="Helvetica,sans-Serif" font-size="10.00" fill="#000000">tests.</text>
<text xml:space="preserve" text-anchor="middle" x="1058.28" y="-113.84" font-family="Helvetica,sans-Serif" font-size="10.00" fill="#000000">test_url_handler</text>
</g>
<!-- CustomObjects&#45;&gt;ECE461Project_tests_test_url_handler -->
<g id="edge10" class="edge">
<title>CustomObjects&#45;&gt;ECE461Project_tests_test_url_handler</title><style>.edge>path:hover{stroke-width:8}</style>
<path fill="none" stroke="black" d="M763.28,-541.27C758.04,-426.11 923.29,-523.05 1001.28,-438.16 1069.09,-364.34 1068.78,-237.12 1063.3,-171.76"/>
<polygon fill="#f98f10" stroke="black" points="1066.82,-171.82 1062.41,-162.18 1059.85,-172.47 1066.82,-171.82"/>
</g>
<!-- ECE461Project_URL_handler -->
<g id="node21" class="node">
<title>ECE461Project_URL_handler</title><style>.edge>path:hover{stroke-width:8}</style>
<ellipse fill="#a3ac49" stroke="black" cx="329.28" cy="-407.04" rx="61.16" ry="22.63"/>
<text xml:space="preserve" text-anchor="middle" x="329.28" y="-409.54" font-family="Helvetica,sans-Serif" font-size="10.00" fill="#000000">ECE461Project.</text>
<text xml:space="preserve" text-anchor="middle" x="329.28" y="-397.54" font-family="Helvetica,sans-Serif" font-size="10.00" fill="#000000">URL_handler</text>
</g>
<!-- CustomObjects&#45;&gt;ECE461Project_URL_handler -->
<g id="edge11" class="edge">
<title>CustomObjects&#45;&gt;ECE461Project_URL_handler</title><style>.edge>path:hover{stroke-width:8}</style>
<path fill="none" stroke="black" d="M722.64,-626.43C650.91,-597.07 483.15,-524.54 448.28,-475.16"/>
</g>
<!-- URL_handler -->
<g id="node30" class="node">
<title>URL_handler</title><style>.edge>path:hover{stroke-width:8}</style>
<ellipse fill="#66c431" stroke="black" cx="168.28" cy="-407.04" rx="43.9" ry="18"/>
<text xml:space="preserve" text-anchor="middle" x="168.28" y="-403.54" font-family="Helvetica,sans-Serif" font-size="10.00" fill="#000000">URL_handler</text>
</g>
<!-- CustomObjects&#45;&gt;URL_handler -->
<g id="edge12" class="edge">
<title>CustomObjects&#45;&gt;URL_handler</title><style>.edge>path:hover{stroke-width:8}</style>
<path fill="none" stroke="black" d="M719.2,-627.55C700.78,-621.67 677.96,-614.72 657.28,-609.38 582.08,-589.96 558,-603.17 486.28,-573.38 439.66,-554.02 435.41,-535.64 391.28,-511.16 329.6,-476.94 254.55,-443.9 209.15,-424.8"/>
<polygon fill="#f98f10" stroke="black" points="210.52,-421.58 199.94,-420.95 207.81,-428.04 210.52,-421.58"/>
</g>
<!-- CustomObjects_Code -->
<g id="node3" class="node">
<title>CustomObjects_Code</title><style>.edge>path:hover{stroke-width:8}</style>
<ellipse fill="#b4762d" stroke="black" cx="304.28" cy="-640.49" rx="61.7" ry="22.63"/>
<text xml:space="preserve" text-anchor="middle" x="304.28" y="-642.99" font-family="Helvetica,sans-Serif" font-size="10.00" fill="#000000">CustomObjects.</text>
<text xml:space="preserve" text-anchor="middle" x="304.28" y="-630.99" font-family="Helvetica,sans-Serif" font-size="10.00" fill="#000000">Code</text>
</g>
<!-- CustomObjects_Model -->
<g id="node6" class="node">
<title>CustomObjects_Model</title><style>.edge>path:hover{stroke-width:8}</style>
<ellipse fill="#b67220" stroke="black" cx="320.28" cy="-542.27" rx="61.7" ry="22.63"/>
<text xml:space="preserve" text-anchor="middle" x="320.28" y="-544.77" font-family="Helvetica,sans-Serif" font-size="10.00" fill="#ffffff">CustomObjects.</text>
<text xml:space="preserve" text-anchor="middle" x="320.28" y="-532.77" font-family="Helvetica,sans-Serif" font-size="10.00" fill="#ffffff">Model</text>
</g>
<!-- CustomObjects_Code&#45;&gt;CustomObjects_Model -->
<g id="edge13" class="edge">
<title>CustomObjects_Code&#45;&gt;CustomObjects_Model</title><style>.edge>path:hover{stroke-width:8}</style>
<path fill="none" stroke="black" d="M307.91,-617.66C309.92,-605.57 312.46,-590.28 314.72,-576.71"/>
<polygon fill="#b4762d" stroke="black" points="318.17,-577.28 316.36,-566.84 311.26,-576.13 318.17,-577.28"/>
</g>
<!-- CustomObjects_Code&#45;&gt;ECE461Project_CustomObjects_Model -->
<g id="edge14" class="edge">
<title>CustomObjects_Code&#45;&gt;ECE461Project_CustomObjects_Model</title><style>.edge>path:hover{stroke-width:8}</style>
<path fill="none" stroke="black" d="M486.28,-474.16C483.26,-466.36 480.69,-457.81 478.54,-449.54"/>
<polygon fill="#b4762d" stroke="black" points="481.99,-448.88 476.24,-439.98 475.18,-450.52 481.99,-448.88"/>
<path fill="none" stroke="black" d="M332.16,-619.97C349.66,-607.32 372.41,-590.13 391.28,-573.38 413.99,-553.22 497.23,-503.48 486.28,-475.16"/>
</g>
<!-- CustomObjects_Code&#45;&gt;ECE461Project_tests_test_code -->
<g id="edge15" class="edge">
<title>CustomObjects_Code&#45;&gt;ECE461Project_tests_test_code</title><style>.edge>path:hover{stroke-width:8}</style>
<path fill="none" stroke="black" d="M346.6,-623.68C375.4,-611.95 413.69,-594.37 444.28,-573.38 496.95,-537.23 498.23,-513.87 548.28,-474.16 564.76,-461.08 583.85,-448.09 600.97,-437.13"/>
<polygon fill="#b4762d" stroke="black" points="602.38,-440.37 608.96,-432.07 598.64,-434.46 602.38,-440.37"/>
</g>
<!-- CustomObjects_Dataset -->
<g id="node4" class="node">
<title>CustomObjects_Dataset</title><style>.edge>path:hover{stroke-width:8}</style>
<ellipse fill="#bc7c2f" stroke="black" cx="586.28" cy="-640.49" rx="61.7" ry="22.63"/>
<text xml:space="preserve" text-anchor="middle" x="586.28" y="-642.99" font-family="Helvetica,sans-Serif" font-size="10.00" fill="#000000">CustomObjects.</text>
<text xml:space="preserve" text-anchor="middle" x="586.28" y="-630.99" font-family="Helvetica,sans-Serif" font-size="10.00" fill="#000000">Dataset</text>
</g>
<!-- CustomObjects_Dataset&#45;&gt;CustomObjects_Model -->
<g id="edge16" class="edge">
<title>CustomObjects_Dataset&#45;&gt;CustomObjects_Model</title><style>.edge>path:hover{stroke-width:8}</style>
<path fill="none" stroke="black" d="M543.24,-623.93C497.08,-607.23 423.69,-580.68 373.82,-562.64"/>
<polygon fill="#bc7c2f" stroke="black" points="375.26,-559.44 364.67,-559.33 372.88,-566.02 375.26,-559.44"/>
</g>
<!-- CustomObjects_Dataset&#45;&gt;ECE461Project_CustomObjects_Model -->
<g id="edge17" class="edge">
<title>CustomObjects_Dataset&#45;&gt;ECE461Project_CustomObjects_Model</title><style>.edge>path:hover{stroke-width:8}</style>
<path fill="none" stroke="black" d="M570.87,-618.12C549.47,-587.65 510.65,-529.38 486.28,-475.16"/>
</g>
<!-- CustomObjects_Dataset&#45;&gt;ECE461Project_tests_test_dataset -->
<g id="edge18" class="edge">
<title>CustomObjects_Dataset&#45;&gt;ECE461Project_tests_test_dataset</title><style>.edge>path:hover{stroke-width:8}</style>
<path fill="none" stroke="black" d="M604.65,-618.55C639.27,-579.08 714.53,-493.26 757.51,-444.26"/>
<polygon fill="#bc7c2f" stroke="black" points="759.92,-446.82 763.89,-436.99 754.66,-442.2 759.92,-446.82"/>
</g>
<!-- CustomObjects_LLMQuerier -->
<g id="node5" class="node">
<title>CustomObjects_LLMQuerier</title><style>.edge>path:hover{stroke-width:8}</style>
<ellipse fill="#e68919" stroke="black" cx="586.28" cy="-730.23" rx="61.7" ry="22.63"/>
<text xml:space="preserve" text-anchor="middle" x="586.28" y="-732.73" font-family="Helvetica,sans-Serif" font-size="10.00" fill="#000000">CustomObjects.</text>
<text xml:space="preserve" text-anchor="middle" x="586.28" y="-720.73" font-family="Helvetica,sans-Serif" font-size="10.00" fill="#000000">LLMQuerier</text>
</g>
<!-- CustomObjects_LLMQuerier&#45;&gt;CustomObjects_Dataset -->
<g id="edge19" class="edge">
<title>CustomObjects_LLMQuerier&#45;&gt;CustomObjects_Dataset</title><style>.edge>path:hover{stroke-width:8}</style>
<path fill="none" stroke="black" d="M586.28,-707.55C586.28,-697.71 586.28,-685.85 586.28,-674.91"/>
<polygon fill="#e68919" stroke="black" points="589.78,-675.06 586.28,-665.06 582.78,-675.06 589.78,-675.06"/>
</g>
<!-- CustomObjects_LLMQuerier&#45;&gt;CustomObjects_Model -->
<g id="edge20" class="edge">
<title>CustomObjects_LLMQuerier&#45;&gt;CustomObjects_Model</title><style>.edge>path:hover{stroke-width:8}</style>
<path fill="none" stroke="black" d="M560.34,-709.43C546.61,-698.64 529.66,-684.82 515.28,-671.61 501.59,-659.04 499.22,-654.83 486.28,-641.49"/>
<path fill="none" stroke="black" d="M486.28,-639.49C453.76,-605.99 407.08,-580.33 371.51,-563.97"/>
<polygon fill="#e68919" stroke="black" points="373.25,-560.91 362.7,-560.01 370.39,-567.3 373.25,-560.91"/>
</g>
<!-- CustomObjects_LLMQuerier&#45;&gt;ECE461Project_CustomObjects_Dataset -->
<g id="edge21" class="edge">
<title>CustomObjects_LLMQuerier&#45;&gt;ECE461Project_CustomObjects_Dataset</title><style>.edge>path:hover{stroke-width:8}</style>
<path fill="none" stroke="black" d="M633.62,-715.4C643.09,-712.73 652.98,-710.02 662.28,-707.61 729.89,-690.04 770.25,-725.02 815.28,-671.61 871.65,-604.72 792.25,-555.31 827.28,-475.16"/>
</g>
<!-- CustomObjects_LLMQuerier&#45;&gt;ECE461Project_CustomObjects_Model -->
<g id="edge22" class="edge">
<title>CustomObjects_LLMQuerier&#45;&gt;ECE461Project_CustomObjects_Model</title><style>.edge>path:hover{stroke-width:8}</style>
<path fill="none" stroke="black" d="M486.28,-639.49C435.4,-587.08 514.46,-542.54 486.28,-475.16"/>
</g>
<!-- CustomObjects_LLMQuerier&#45;&gt;ECE461Project_tests_test_llm_querier -->
<g id="edge23" class="edge">
<title>CustomObjects_LLMQuerier&#45;&gt;ECE461Project_tests_test_llm_querier</title><style>.edge>path:hover{stroke-width:8}</style>
<path fill="none" stroke="black" d="M631.73,-714.62C641.7,-711.88 652.27,-709.34 662.28,-707.61 721.74,-697.29 1158.87,-711.37 1204.28,-671.61 1267.47,-616.25 1268,-508.44 1262.75,-449.3"/>
<polygon fill="#e68919" stroke="black" points="1266.26,-449.26 1261.78,-439.66 1259.29,-449.96 1266.26,-449.26"/>
</g>
<!-- CustomObjects_Model&#45;&gt;ECE461Project_tests_test_model -->
<g id="edge24" class="edge">
<title>CustomObjects_Model&#45;&gt;ECE461Project_tests_test_model</title><style>.edge>path:hover{stroke-width:8}</style>
<path fill="none" stroke="black" d="M204.28,-474.16C201.96,-472.05 256.76,-377.79 259.28,-375.93 295.21,-349.27 412.7,-329.22 489.82,-318.53"/>
<polygon fill="#b67220" stroke="black" points="489.95,-322.04 499.39,-317.23 489.01,-315.11 489.95,-322.04"/>
</g>
<!-- CustomObjects_Model&#45;&gt;ECE461Project_tests_test_url_handler -->
<g id="edge25" class="edge">
<title>CustomObjects_Model&#45;&gt;ECE461Project_tests_test_url_handler</title><style>.edge>path:hover{stroke-width:8}</style>
<path fill="none" stroke="black" d="M204.28,-474.16C172.74,-445.41 140.64,-472.47 115.28,-438.16 57.43,-359.93 30.75,-292 96.28,-220.08"/>
<path fill="none" stroke="black" d="M279.36,-525.04C255.19,-513.86 225.3,-497.06 204.28,-475.16"/>
<path fill="none" stroke="black" d="M96.28,-218.08C104.85,-208.58 103.81,-202.13 115.28,-196.45 192.54,-158.17 778.42,-138.19 985.8,-132.26"/>
<polygon fill="#b67220" stroke="black" points="985.74,-135.76 995.64,-131.98 985.55,-128.76 985.74,-135.76"/>
</g>
<!-- CustomObjects_Model&#45;&gt;ECE461Project_URL_handler -->
<g id="edge26" class="edge">
<title>CustomObjects_Model&#45;&gt;ECE461Project_URL_handler</title><style>.edge>path:hover{stroke-width:8}</style>
<path fill="none" stroke="black" d="M448.28,-474.16C439.11,-461.18 406.73,-443.59 378.06,-429.82"/>
<polygon fill="#b67220" stroke="black" points="379.62,-426.68 369.08,-425.58 376.63,-433.01 379.62,-426.68"/>
<path fill="none" stroke="black" d="M360.64,-524.88C400.33,-508.16 454.17,-483.51 448.28,-475.16"/>
</g>
<!-- CustomObjects_Model&#45;&gt;URL_handler -->
<g id="edge27" class="edge">
<title>CustomObjects_Model&#45;&gt;URL_handler</title><style>.edge>path:hover{stroke-width:8}</style>
<path fill="none" stroke="black" d="M204.28,-474.16C192.79,-463.72 184.21,-448.74 178.32,-435.68"/>
<polygon fill="#b67220" stroke="black" points="181.65,-434.58 174.57,-426.7 175.19,-437.27 181.65,-434.58"/>
</g>
<!-- dotenv -->
<g id="node7" class="node">
<title>dotenv</title><style>.edge>path:hover{stroke-width:8}</style>
<ellipse fill="#47c25e" stroke="black" cx="1113.28" cy="-407.04" rx="27.21" ry="18"/>
<text xml:space="preserve" text-anchor="middle" x="1113.28" y="-403.54" font-family="Helvetica,sans-Serif" font-size="10.00" fill="#000000">dotenv</text>
</g>
<!-- dotenv&#45;&gt;ECE461Project_main -->
<g id="edge28" class="edge">
<title>dotenv&#45;&gt;ECE461Project_main</title><style>.edge>path:hover{stroke-width:8}</style>
<path fill="none" stroke="black" d="M1104.96,-389.56C1091.32,-364.89 1061.51,-320.17 1020.28,-309.82"/>
<path fill="none" stroke="black" d="M1020.28,-307.82C744.63,-238.62 404.52,-223.93 258.02,-220.86"/>
<polygon fill="#47c25e" stroke="black" points="258.13,-217.36 248.06,-220.67 257.99,-224.36 258.13,-217.36"/>
</g>
<!-- dotenv&#45;&gt;main -->
<g id="edge29" class="edge">
<title>dotenv&#45;&gt;main</title><style>.edge>path:hover{stroke-width:8}</style>
<path fill="none" stroke="black" d="M1134.36,-395.19C1167.28,-378.25 1231.04,-345.44 1269.22,-325.8"/>
<polygon fill="#47c25e" stroke="black" points="1270.63,-329.01 1277.92,-321.32 1267.43,-322.79 1270.63,-329.01"/>
</g>
<!-- ECE461Project_CustomObjects_Code -->
<g id="node8" class="node">
<title>ECE461Project_CustomObjects_Code</title><style>.edge>path:hover{stroke-width:8}</style>
<ellipse fill="#959d43" stroke="black" cx="179.28" cy="-542.27" rx="61.7" ry="31.11"/>
<text xml:space="preserve" text-anchor="middle" x="179.28" y="-550.77" font-family="Helvetica,sans-Serif" font-size="10.00" fill="#000000">ECE461Project.</text>
<text xml:space="preserve" text-anchor="middle" x="179.28" y="-538.77" font-family="Helvetica,sans-Serif" font-size="10.00" fill="#000000">CustomObjects.</text>
<text xml:space="preserve" text-anchor="middle" x="179.28" y="-526.77" font-family="Helvetica,sans-Serif" font-size="10.00" fill="#000000">Code</text>
</g>
<!-- ECE461Project_CustomObjects_LLMQuerier -->
<g id="node10" class="node">
<title>ECE461Project_CustomObjects_LLMQuerier</title><style>.edge>path:hover{stroke-width:8}</style>
<ellipse fill="#a9b34c" stroke="black" cx="1606.28" cy="-640.49" rx="61.7" ry="31.11"/>
<text xml:space="preserve" text-anchor="middle" x="1606.28" y="-648.99" font-family="Helvetica,sans-Serif" font-size="10.00" fill="#000000">ECE461Project.</text>
<text xml:space="preserve" text-anchor="middle" x="1606.28" y="-636.99" font-family="Helvetica,sans-Serif" font-size="10.00" fill="#000000">CustomObjects.</text>
<text xml:space="preserve" text-anchor="middle" x="1606.28" y="-624.99" font-family="Helvetica,sans-Serif" font-size="10.00" fill="#000000">LLMQuerier</text>
</g>
<!-- ECE461Project_tests_test_github_token -->
<g id="node16" class="node">
<title>ECE461Project_tests_test_github_token</title><style>.edge>path:hover{stroke-width:8}</style>
<ellipse fill="#9ca446" stroke="black" cx="1300.28" cy="-31.11" rx="65.94" ry="31.11"/>
<text xml:space="preserve" text-anchor="middle" x="1300.28" y="-39.61" font-family="Helvetica,sans-Serif" font-size="10.00" fill="#000000">ECE461Project.</text>
<text xml:space="preserve" text-anchor="middle" x="1300.28" y="-27.61" font-family="Helvetica,sans-Serif" font-size="10.00" fill="#000000">tests.</text>
<text xml:space="preserve" text-anchor="middle" x="1300.28" y="-15.61" font-family="Helvetica,sans-Serif" font-size="10.00" fill="#000000">test_github_token</text>
</g>
<!-- ECE461Project_tests_test_logging -->
<g id="node18" class="node">
<title>ECE461Project_tests_test_logging</title><style>.edge>path:hover{stroke-width:8}</style>
<ellipse fill="#a3ac49" stroke="black" cx="1155.28" cy="-31.11" rx="61.16" ry="31.11"/>
<text xml:space="preserve" text-anchor="middle" x="1155.28" y="-39.61" font-family="Helvetica,sans-Serif" font-size="10.00" fill="#000000">ECE461Project.</text>
<text xml:space="preserve" text-anchor="middle" x="1155.28" y="-27.61" font-family="Helvetica,sans-Serif" font-size="10.00" fill="#000000">tests.</text>
<text xml:space="preserve" text-anchor="middle" x="1155.28" y="-15.61" font-family="Helvetica,sans-Serif" font-size="10.00" fill="#000000">test_logging</text>
</g>
<!-- flake8 -->
<g id="node22" class="node">
<title>flake8</title><style>.edge>path:hover{stroke-width:8}</style>
<ellipse fill="#3bcea6" stroke="black" cx="43.28" cy="-806.86" rx="27" ry="18"/>
<text xml:space="preserve" text-anchor="middle" x="43.28" y="-803.36" font-family="Helvetica,sans-Serif" font-size="10.00" fill="#000000">flake8</text>
</g>
<!-- flake8&#45;&gt;CustomObjects_Code -->
<g id="edge30" class="edge">
<title>flake8&#45;&gt;CustomObjects_Code</title><style>.edge>path:hover{stroke-width:8}</style>
<path fill="none" stroke="black" d="M67.5,-798.38C100.03,-787.48 158.45,-764.78 199.28,-731.23"/>
<path fill="none" stroke="black" d="M199.28,-729.23C210.37,-720.12 212.38,-716.96 223.28,-707.61 238.56,-694.49 255.82,-680.33 270.46,-668.48"/>
<polygon fill="#3bcea6" stroke="black" points="272.43,-671.39 278.02,-662.39 268.04,-665.94 272.43,-671.39"/>
</g>
<!-- flake8&#45;&gt;ECE461Project_CustomObjects_Code -->
<g id="edge31" class="edge">
<title>flake8&#45;&gt;ECE461Project_CustomObjects_Code</title><style>.edge>path:hover{stroke-width:8}</style>
<path fill="none" stroke="black" d="M41.6,-788.53C40.53,-773.31 39.9,-750.64 43.28,-731.23"/>
</g>
<!-- flake8_api -->
<g id="node23" class="node">
<title>flake8_api</title><style>.edge>path:hover{stroke-width:8}</style>
<ellipse fill="#47c2a1" stroke="black" cx="241.28" cy="-806.86" rx="34.88" ry="18"/>
<text xml:space="preserve" text-anchor="middle" x="241.28" y="-803.36" font-family="Helvetica,sans-Serif" font-size="10.00" fill="#000000">flake8.api</text>
</g>
<!-- flake8_api&#45;&gt;CustomObjects_Code -->
<g id="edge32" class="edge">
<title>flake8_api&#45;&gt;CustomObjects_Code</title><style>.edge>path:hover{stroke-width:8}</style>
<path fill="none" stroke="black" d="M237.28,-729.23C238.35,-705.76 253.77,-684.64 269.54,-669.01"/>
<polygon fill="#47c2a1" stroke="black" points="271.72,-671.76 276.64,-662.38 266.94,-666.65 271.72,-671.76"/>
</g>
<!-- flake8_api&#45;&gt;ECE461Project_CustomObjects_Code -->
<g id="edge33" class="edge">
<title>flake8_api&#45;&gt;ECE461Project_CustomObjects_Code</title><style>.edge>path:hover{stroke-width:8}</style>
<path fill="none" stroke="black" d="M239.38,-788.67C237.95,-773.55 236.37,-750.94 237.28,-731.23"/>
<path fill="none" stroke="black" d="M237.28,-729.23C239.25,-686.24 202.82,-684.04 196.28,-641.49"/>
</g>
<!-- flake8_api_legacy -->
<g id="node24" class="node">
<title>flake8_api_legacy</title><style>.edge>path:hover{stroke-width:8}</style>
<ellipse fill="#40c09d" stroke="black" cx="146.28" cy="-891.97" rx="32" ry="31.11"/>
<text xml:space="preserve" text-anchor="middle" x="146.28" y="-900.47" font-family="Helvetica,sans-Serif" font-size="10.00" fill="#000000">flake8.</text>
<text xml:space="preserve" text-anchor="middle" x="146.28" y="-888.47" font-family="Helvetica,sans-Serif" font-size="10.00" fill="#000000">api.</text>
<text xml:space="preserve" text-anchor="middle" x="146.28" y="-876.47" font-family="Helvetica,sans-Serif" font-size="10.00" fill="#000000">legacy</text>
</g>
<!-- flake8_api_legacy&#45;&gt;CustomObjects_Code -->
<g id="edge34" class="edge">
<title>flake8_api_legacy&#45;&gt;CustomObjects_Code</title><style>.edge>path:hover{stroke-width:8}</style>
<path fill="none" stroke="black" d="M177.73,-885.29C210.36,-877.62 260.07,-860.55 285.28,-824.86 316.65,-780.44 314.75,-714.2 309.92,-674.68"/>
<polygon fill="#40c09d" stroke="black" points="313.39,-674.26 308.57,-664.83 306.46,-675.21 313.39,-674.26"/>
</g>
<!-- flake8_api_legacy&#45;&gt;ECE461Project_CustomObjects_Code -->
<g id="edge35" class="edge">
<title>flake8_api_legacy&#45;&gt;ECE461Project_CustomObjects_Code</title><style>.edge>path:hover{stroke-width:8}</style>
<path fill="none" stroke="black" d="M43.28,-729.23C54.1,-667.03 103.28,-610.84 139.4,-576.89"/>
<polygon fill="#40c09d" stroke="black" points="141.7,-579.53 146.7,-570.18 136.96,-574.37 141.7,-579.53"/>
<path fill="none" stroke="black" d="M114.69,-885.92C81.45,-878.73 30.75,-862.03 7.28,-824.86 -16.53,-787.17 26.28,-772.45 43.28,-731.23"/>
</g>
<!-- git -->
<g id="node25" class="node">
<title>git</title><style>.edge>path:hover{stroke-width:8}</style>
<ellipse fill="#33a2cc" stroke="black" cx="161.28" cy="-806.86" rx="27" ry="18"/>
<text xml:space="preserve" text-anchor="middle" x="161.28" y="-803.36" font-family="Helvetica,sans-Serif" font-size="10.00" fill="#000000">git</text>
</g>
<!-- git&#45;&gt;CustomObjects_Code -->
<g id="edge36" class="edge">
<title>git&#45;&gt;CustomObjects_Code</title><style>.edge>path:hover{stroke-width:8}</style>
<path fill="none" stroke="black" d="M165.62,-788.8C170.82,-771.78 181.19,-746.1 199.28,-731.23"/>
</g>
<!-- git&#45;&gt;ECE461Project_CustomObjects_Code -->
<g id="edge37" class="edge">
<title>git&#45;&gt;ECE461Project_CustomObjects_Code</title><style>.edge>path:hover{stroke-width:8}</style>
<path fill="none" stroke="black" d="M165.56,-788.67C175.23,-749.55 197.78,-656.11 196.28,-641.49"/>
<path fill="none" stroke="black" d="M196.28,-639.49C193.51,-621.51 190.08,-601.71 187.02,-584.76"/>
<polygon fill="#33a2cc" stroke="black" points="190.49,-584.25 185.25,-575.04 183.6,-585.5 190.49,-584.25"/>
</g>
<!-- huggingface_hub -->
<g id="node26" class="node">
<title>huggingface_hub</title><style>.edge>path:hover{stroke-width:8}</style>
<ellipse fill="#2f4edb" stroke="black" cx="672.28" cy="-806.86" rx="53.82" ry="18"/>
<text xml:space="preserve" text-anchor="middle" x="672.28" y="-803.36" font-family="Helvetica,sans-Serif" font-size="10.00" fill="#ffffff">huggingface_hub</text>
</g>
<!-- huggingface_hub&#45;&gt;CustomObjects_Dataset -->
<g id="edge38" class="edge">
<title>huggingface_hub&#45;&gt;CustomObjects_Dataset</title><style>.edge>path:hover{stroke-width:8}</style>
<path fill="none" stroke="black" d="M671.65,-788.46C671.47,-773.2 672.09,-750.51 676.28,-731.23"/>
<path fill="none" stroke="black" d="M676.28,-729.23C682.3,-701.47 658.91,-679.25 634.47,-664.11"/>
<polygon fill="#2f4edb" stroke="black" points="636.46,-661.22 626.06,-659.23 632.95,-667.28 636.46,-661.22"/>
</g>
<!-- huggingface_hub&#45;&gt;CustomObjects_Model -->
<g id="edge39" class="edge">
<title>huggingface_hub&#45;&gt;CustomObjects_Model</title><style>.edge>path:hover{stroke-width:8}</style>
<path fill="none" stroke="black" d="M627.02,-796.88C594.14,-788.91 549.59,-775.03 515.28,-752.86 475.69,-727.3 387.77,-624.62 344.83,-573.08"/>
<polygon fill="#2f4edb" stroke="black" points="347.65,-571 338.57,-565.55 342.26,-575.48 347.65,-571"/>
</g>
<!-- huggingface_hub&#45;&gt;ECE461Project_CustomObjects_Dataset -->
<g id="edge40" class="edge">
<title>huggingface_hub&#45;&gt;ECE461Project_CustomObjects_Dataset</title><style>.edge>path:hover{stroke-width:8}</style>
<path fill="none" stroke="black" d="M676.28,-729.23C691.74,-653.97 794.91,-734.35 839.28,-671.61 844.15,-664.72 841.74,-541.59 837.28,-511.16 834.87,-494.73 820.76,-490.43 827.28,-475.16"/>
</g>
<!-- huggingface_hub&#45;&gt;ECE461Project_CustomObjects_Model -->
<g id="edge41" class="edge">
<title>huggingface_hub&#45;&gt;ECE461Project_CustomObjects_Model</title><style>.edge>path:hover{stroke-width:8}</style>
<path fill="none" stroke="black" d="M676.28,-729.23C687.71,-676.53 684.22,-656.1 657.28,-609.38 622.67,-549.38 591.29,-553.24 536.28,-511.16 514.53,-494.52 496.74,-500.46 486.28,-475.16"/>
</g>
<!-- main&#45;&gt;ECE461Project_tests_test_github_token -->
<g id="edge42" class="edge">
<title>main&#45;&gt;ECE461Project_tests_test_github_token</title><style>.edge>path:hover{stroke-width:8}</style>
<path fill="none" stroke="black" d="M1300.28,-128.34C1294.59,-111.06 1293.74,-91.08 1294.64,-73.81"/>
<polygon fill="#6138a8" stroke="black" points="1298.13,-74.1 1295.39,-63.87 1291.15,-73.57 1298.13,-74.1"/>
</g>
<!-- main&#45;&gt;ECE461Project_tests_test_logging -->
<g id="edge43" class="edge">
<title>main&#45;&gt;ECE461Project_tests_test_logging</title><style>.edge>path:hover{stroke-width:8}</style>
<path fill="none" stroke="black" d="M1300.28,-128.34C1293.38,-107.39 1247.22,-79.05 1208.8,-58.56"/>
<polygon fill="#6138a8" stroke="black" points="1210.54,-55.52 1200.06,-53.97 1207.28,-61.72 1210.54,-55.52"/>
<path fill="none" stroke="black" d="M1303.74,-290.62C1309.52,-258.27 1318.77,-186.53 1300.28,-130.34"/>
</g>
<!-- pytest -->
<g id="node28" class="node">
<title>pytest</title><style>.edge>path:hover{stroke-width:8}</style>
<ellipse fill="#e410f9" stroke="black" cx="1168.28" cy="-640.49" rx="27" ry="18"/>
<text xml:space="preserve" text-anchor="middle" x="1168.28" y="-636.99" font-family="Helvetica,sans-Serif" font-size="10.00" fill="#ffffff">pytest</text>
</g>
<!-- pytest&#45;&gt;ECE461Project_tests_test_cli_parser -->
<g id="edge44" class="edge">
<title>pytest&#45;&gt;ECE461Project_tests_test_cli_parser</title><style>.edge>path:hover{stroke-width:8}</style>
<path fill="none" stroke="black" d="M1195.24,-637.83C1270.66,-631.58 1478.28,-602.77 1478.28,-475.16 1206.28,0 1206.28,0 1478.28,-406.04 1478.28,-323.39 1497.13,-300.55 1478.28,-220.08"/>
<path fill="none" stroke="black" d="M1478.28,-218.08C1471.96,-194.87 1454.43,-175.31 1436.57,-160.58"/>
<polygon fill="#e410f9" stroke="black" points="1439.06,-158.08 1429.02,-154.68 1434.75,-163.6 1439.06,-158.08"/>
</g>
<!-- pytest&#45;&gt;ECE461Project_tests_test_code -->
<g id="edge45" class="edge">
<title>pytest&#45;&gt;ECE461Project_tests_test_code</title><style>.edge>path:hover{stroke-width:8}</style>
<path fill="none" stroke="black" d="M789.28,-474.16C781.9,-468.34 740.88,-449.18 705.13,-432.98"/>
<polygon fill="#e410f9" stroke="black" points="706.67,-429.83 696.12,-428.9 703.79,-436.21 706.67,-429.83"/>
<path fill="none" stroke="black" d="M1143.36,-633.49C1079.15,-617.07 904.99,-566.44 789.28,-475.16"/>
</g>
<!-- pytest&#45;&gt;ECE461Project_tests_test_dataset -->
<g id="edge46" class="edge">
<title>pytest&#45;&gt;ECE461Project_tests_test_dataset</title><style>.edge>path:hover{stroke-width:8}</style>
<path fill="none" stroke="black" d="M789.28,-474.16C781.7,-468.18 779.1,-458.99 779.02,-449.35"/>
<polygon fill="#e410f9" stroke="black" points="782.5,-449.75 779.83,-439.5 775.53,-449.19 782.5,-449.75"/>
</g>
<!-- pytest&#45;&gt;ECE461Project_tests_test_github_token -->
<g id="edge47" class="edge">
<title>pytest&#45;&gt;ECE461Project_tests_test_github_token</title><style>.edge>path:hover{stroke-width:8}</style>
<path fill="none" stroke="black" d="M1478.28,-128.34C1468.86,-115.62 1471.37,-108.43 1459.28,-98.23 1433.23,-76.24 1398.85,-60.73 1368.73,-50.28"/>
<polygon fill="#e410f9" stroke="black" points="1369.87,-46.97 1359.28,-47.14 1367.66,-53.62 1369.87,-46.97"/>
<path fill="none" stroke="black" d="M1478.28,-218.08C1468.04,-180.45 1501.49,-161.67 1478.28,-130.34"/>
</g>
<!-- pytest&#45;&gt;ECE461Project_tests_test_llm_querier -->
<g id="edge48" class="edge">
<title>pytest&#45;&gt;ECE461Project_tests_test_llm_querier</title><style>.edge>path:hover{stroke-width:8}</style>
<path fill="none" stroke="black" d="M1168.28,-474.16C1165.5,-454.7 1179.1,-440.25 1196.44,-429.9"/>
<polygon fill="#e410f9" stroke="black" points="1197.89,-433.1 1205.05,-425.29 1194.59,-426.93 1197.89,-433.1"/>
</g>
<!-- pytest&#45;&gt;ECE461Project_tests_test_logging -->
<g id="edge49" class="edge">
<title>pytest&#45;&gt;ECE461Project_tests_test_logging</title><style>.edge>path:hover{stroke-width:8}</style>
<path fill="none" stroke="black" d="M1168.28,-218.08C1152.27,-170.55 1150.88,-112.41 1152.27,-73.93"/>
<polygon fill="#e410f9" stroke="black" points="1155.76,-74.32 1152.71,-64.17 1148.77,-74 1155.76,-74.32"/>
</g>
<!-- pytest&#45;&gt;ECE461Project_tests_test_model -->
<g id="edge50" class="edge">
<title>pytest&#45;&gt;ECE461Project_tests_test_model</title><style>.edge>path:hover{stroke-width:8}</style>
<path fill="none" stroke="black" d="M1169.88,-622.11C1172.29,-592 1175.84,-528.26 1168.28,-475.16"/>
<path fill="none" stroke="black" d="M1168.28,-474.16C1160.82,-431.31 1114.77,-460.2 1077.28,-438.16 1039.64,-416.03 1041.18,-393.63 1001.28,-375.93 879.92,-322.11 723.26,-310.73 633.05,-309.08"/>
<polygon fill="#e410f9" stroke="black" points="633.15,-305.58 623.1,-308.94 633.05,-312.58 633.15,-305.58"/>
</g>
<!-- pytest&#45;&gt;ECE461Project_tests_test_url_handler -->
<g id="edge51" class="edge">
<title>pytest&#45;&gt;ECE461Project_tests_test_url_handler</title><style>.edge>path:hover{stroke-width:8}</style>
<path fill="none" stroke="black" d="M1168.28,-474.16C1153.85,-362.16 1198.93,-328.76 1168.28,-220.08"/>
<path fill="none" stroke="black" d="M1168.28,-218.08C1159.27,-191.34 1136,-170.87 1113.17,-156.45"/>
<polygon fill="#e410f9" stroke="black" points="1115.13,-153.55 1104.75,-151.42 1111.54,-159.56 1115.13,-153.55"/>
</g>
<!-- requests -->
<g id="node29" class="node">
<title>requests</title><style>.edge>path:hover{stroke-width:8}</style>
<ellipse fill="#f9068b" stroke="black" cx="586.28" cy="-891.97" rx="32.17" ry="18"/>
<text xml:space="preserve" text-anchor="middle" x="586.28" y="-888.47" font-family="Helvetica,sans-Serif" font-size="10.00" fill="#ffffff">requests</text>
</g>
<!-- requests&#45;&gt;CustomObjects_LLMQuerier -->
<g id="edge52" class="edge">
<title>requests&#45;&gt;CustomObjects_LLMQuerier</title><style>.edge>path:hover{stroke-width:8}</style>
<path fill="none" stroke="black" d="M586.28,-873.58C586.28,-847.51 586.28,-797.83 586.28,-764.61"/>
<polygon fill="#f9068b" stroke="black" points="589.78,-764.7 586.28,-754.7 582.78,-764.7 589.78,-764.7"/>
</g>
<!-- requests&#45;&gt;ECE461Project_CustomObjects_LLMQuerier -->
<g id="edge53" class="edge">
<title>requests&#45;&gt;ECE461Project_CustomObjects_LLMQuerier</title><style>.edge>path:hover{stroke-width:8}</style>
<path fill="none" stroke="black" d="M1606.28,-729.23C1602.79,-714.5 1602.01,-697.97 1602.36,-683.27"/>
<polygon fill="#f9068b" stroke="black" points="1605.85,-683.6 1602.79,-673.46 1598.86,-683.29 1605.85,-683.6"/>
</g>
<!-- requests&#45;&gt;ECE461Project_main -->
<g id="edge54" class="edge">
<title>requests&#45;&gt;ECE461Project_main</title><style>.edge>path:hover{stroke-width:8}</style>
<path fill="none" stroke="black" d="M553.93,-891.36C458.85,-891.76 183.29,-887.4 125.28,-824.86 -40.12,-646.58 14.85,-496.85 120.28,-277.71 126.09,-265.62 135.71,-254.97 145.79,-246.23"/>
<polygon fill="#f9068b" stroke="black" points="147.93,-249 153.51,-239.99 143.53,-243.56 147.93,-249"/>
</g>
<!-- requests&#45;&gt;ECE461Project_tests_test_github_token -->
<g id="edge55" class="edge">
<title>requests&#45;&gt;ECE461Project_tests_test_github_token</title><style>.edge>path:hover{stroke-width:8}</style>
<path fill="none" stroke="black" d="M1516.28,-639.49C1472.7,-580.88 1516.28,-548.2 1516.28,-475.16 1206.28,0 1206.28,0 1516.28,-307.82 1516.28,-227.15 1526.29,-195.16 1478.28,-130.34"/>
</g>
<!-- requests&#45;&gt;ECE461Project_tests_test_llm_querier -->
<g id="edge56" class="edge">
<title>requests&#45;&gt;ECE461Project_tests_test_llm_querier</title><style>.edge>path:hover{stroke-width:8}</style>
<path fill="none" stroke="black" d="M618.42,-889.37C794.16,-880.17 1629.92,-831.15 1606.28,-731.23"/>
<path fill="none" stroke="black" d="M1516.28,-639.49C1450.76,-557.33 1405.16,-562.2 1346.28,-475.16"/>
<path fill="none" stroke="black" d="M1606.28,-729.23C1620.24,-691.07 1562.25,-702 1535.28,-671.61 1524.77,-659.77 1525.72,-654.19 1516.28,-641.49"/>
<path fill="none" stroke="black" d="M1346.28,-474.16C1335.15,-460.2 1320.42,-447.69 1306.14,-437.4"/>
<polygon fill="#f9068b" stroke="black" points="1308.33,-434.65 1298.11,-431.83 1304.34,-440.4 1308.33,-434.65"/>
</g>
<!-- requests&#45;&gt;main -->
<g id="edge57" class="edge">
<title>requests&#45;&gt;main</title><style>.edge>path:hover{stroke-width:8}</style>
<path fill="none" stroke="black" d="M1346.28,-474.16C1318.56,-439.39 1339.96,-418.55 1327.28,-375.93 1323.36,-362.78 1317.79,-348.65 1312.72,-336.84"/>
<polygon fill="#f9068b" stroke="black" points="1315.93,-335.46 1308.7,-327.72 1309.53,-338.29 1315.93,-335.46"/>
</g>
<!-- URL_handler&#45;&gt;ECE461Project_main -->
<g id="edge58" class="edge">
<title>URL_handler&#45;&gt;ECE461Project_main</title><style>.edge>path:hover{stroke-width:8}</style>
<path fill="none" stroke="black" d="M134.28,-307.82C131.45,-286.3 143.15,-265.17 156.06,-249.04"/>
<polygon fill="#66c431" stroke="black" points="158.43,-251.65 162.28,-241.78 153.12,-247.1 158.43,-251.65"/>
</g>
<!-- URL_handler&#45;&gt;ECE461Project_tests_test_url_handler -->
<g id="edge59" class="edge">
<title>URL_handler&#45;&gt;ECE461Project_tests_test_url_handler</title><style>.edge>path:hover{stroke-width:8}</style>
<path fill="none" stroke="black" d="M159.88,-389.2C151.1,-370.4 138.08,-338.8 134.28,-309.82"/>
<path fill="none" stroke="black" d="M134.28,-307.82C128.75,-265.68 67.66,-251.49 96.28,-220.08"/>
</g>
<!-- URL_handler&#45;&gt;main -->
<g id="edge60" class="edge">
<title>URL_handler&#45;&gt;main</title><style>.edge>path:hover{stroke-width:8}</style>
<path fill="none" stroke="black" d="M198.48,-393.74C215.94,-387.22 238.49,-379.78 259.28,-375.93 598.33,-313.18 690.55,-367.34 1034.28,-339.93 1115.94,-333.42 1211.25,-321.6 1262.71,-314.87"/>
<polygon fill="#66c431" stroke="black" points="1262.95,-318.37 1272.4,-313.59 1262.03,-311.43 1262.95,-318.37"/>
</g>
</g>
</svg>
